<?xml version="1.0" encoding="utf-8"?>
<!-- Generator: Adobe Illustrator 21.1.0, SVG Export Plug-In . SVG Version: 6.00 Build 0)  -->
<svg version="1.1" id="レイヤー_1" xmlns="http://www.w3.org/2000/svg" xmlns:xlink="http://www.w3.org/1999/xlink" x="0px"
	 y="0px" viewBox="0 0 600 100" style="enable-background:new 0 0 600 100;" xml:space="preserve">
<style type="text/css">
	.st0{fill:#212121;}
	.st1{fill:#302C28;}
</style>
<g>
	<g>
		<path class="st0" d="M86.6,50.4c0,7.1-1,13.5-3.1,19.1c-2.1,5.7-5,10.5-8.7,14.5c-3.7,4-8.2,7.1-13.4,9.2
			c-5.2,2.1-10.9,3.2-17.2,3.2c-6.2,0-11.9-1.1-17.1-3.2c-5.2-2.1-9.7-5.2-13.4-9.2C10,80,7.1,75.2,5,69.5C3,63.8,1.9,57.4,1.9,50.4
			c0-7,1-13.4,3.1-19.1c2.1-5.7,5-10.6,8.7-14.6c3.7-4,8.2-7.1,13.4-9.3C32.3,5.2,38,4.1,44.2,4.1c6.3,0,12.1,1.1,17.2,3.2
			c5.2,2.2,9.7,5.3,13.4,9.3c3.7,4,6.6,8.9,8.7,14.6C85.6,36.9,86.6,43.3,86.6,50.4z M82.9,50.4c0-6.7-0.9-12.8-2.8-18.1
			s-4.5-9.9-7.9-13.6S64.7,12,60,10.1c-4.7-2-10-3-15.7-3c-5.7,0-10.9,1-15.6,3c-4.7,2-8.8,4.8-12.2,8.6c-3.4,3.7-6.1,8.3-8,13.6
			c-1.9,5.3-2.9,11.4-2.9,18.1c0,6.7,1,12.8,2.9,18.1c1.9,5.3,4.6,9.9,8,13.5c3.4,3.7,7.5,6.5,12.2,8.5c4.7,2,9.9,3,15.6,3
			c5.7,0,11-1,15.7-3c4.7-2,8.8-4.8,12.2-8.5c3.4-3.7,6-8.2,7.9-13.5C82,63.1,82.9,57.1,82.9,50.4z"/>
		<path class="st0" d="M195,92.5v3.1h-48.4V5.1h3.5v87.4H195z"/>
		<path class="st0" d="M327.2,50.4c0,7.1-1,13.5-3.1,19.1c-2.1,5.7-5,10.5-8.7,14.5c-3.7,4-8.2,7.1-13.4,9.2
			c-5.2,2.1-10.9,3.2-17.2,3.2c-6.2,0-11.9-1.1-17.1-3.2c-5.2-2.1-9.7-5.2-13.4-9.2c-3.7-4-6.6-8.9-8.7-14.5
			c-2.1-5.7-3.1-12.1-3.1-19.1c0-7,1-13.4,3.1-19.1c2.1-5.7,5-10.6,8.7-14.6c3.7-4,8.2-7.1,13.4-9.3c5.2-2.2,10.9-3.3,17.1-3.3
			c6.3,0,12.1,1.1,17.2,3.2c5.2,2.2,9.7,5.3,13.4,9.3c3.7,4,6.6,8.9,8.7,14.6C326.2,36.9,327.2,43.3,327.2,50.4z M323.5,50.4
			c0-6.7-0.9-12.8-2.8-18.1c-1.9-5.3-4.5-9.9-7.9-13.6s-7.5-6.6-12.2-8.6c-4.7-2-10-3-15.7-3c-5.7,0-10.9,1-15.6,3
			c-4.7,2-8.8,4.8-12.2,8.6c-3.4,3.7-6.1,8.3-8,13.6c-1.9,5.3-2.9,11.4-2.9,18.1c0,6.7,1,12.8,2.9,18.1c1.9,5.3,4.6,9.9,8,13.5
			c3.4,3.7,7.5,6.5,12.2,8.5c4.7,2,9.9,3,15.6,3c5.7,0,11-1,15.7-3c4.7-2,8.8-4.8,12.2-8.5c3.4-3.7,6-8.2,7.9-13.5
			C322.6,63.1,323.5,57.1,323.5,50.4z"/>
		<path class="st0" d="M458.8,55.8v30.9c-4.5,3-9.3,5.5-14.4,7.2s-11,2.7-17.4,2.7c-7.1,0-13.5-1.1-19.1-3.2
			c-5.7-2.2-10.5-5.3-14.4-9.3c-4-4-7-8.9-9.1-14.6c-2.1-5.7-3.2-12.1-3.2-19.2s1-13.5,3.1-19.1c2.1-5.7,5.1-10.5,9-14.6
			c3.9-4,8.6-7.1,14.2-9.3c5.5-2.2,11.8-3.2,18.7-3.2c3.4,0,6.5,0.2,9.4,0.6c2.9,0.4,5.5,1.1,7.9,2c2.4,0.9,4.8,2,6.9,3.3
			c2.2,1.3,4.3,2.9,6.3,4.6l-0.9,1.4c-0.3,0.5-0.8,0.7-1.5,0.5c-0.4-0.1-1.2-0.7-2.3-1.7c-1.1-1-2.8-2-5-3.2c-2.2-1.1-5-2.2-8.4-3.1
			c-3.4-0.9-7.6-1.4-12.5-1.4c-6.3,0-12,1-17.1,3c-5.1,2-9.4,4.8-13,8.6s-6.3,8.3-8.3,13.6c-1.9,5.3-2.9,11.4-2.9,18.1
			c0,6.7,1,12.7,2.9,18.1c1.9,5.4,4.7,9.9,8.3,13.7c3.6,3.8,8,6.6,13.3,8.6c5.2,2,11.1,3,17.7,3c3,0,5.7-0.2,8.3-0.6
			c2.6-0.4,5-0.9,7.2-1.7c2.3-0.7,4.5-1.6,6.6-2.7c2.1-1.1,4.3-2.2,6.5-3.6V58.7h-19.1c-0.3,0-0.6-0.1-0.8-0.3
			c-0.2-0.2-0.3-0.5-0.3-0.7v-1.8H458.8z"/>
		<path class="st0" d="M598.2,50.4c0,7.1-1,13.5-3.1,19.1c-2.1,5.7-5,10.5-8.7,14.5c-3.7,4-8.2,7.1-13.4,9.2
			c-5.2,2.1-10.9,3.2-17.2,3.2c-6.2,0-11.9-1.1-17.1-3.2c-5.2-2.1-9.7-5.2-13.4-9.2c-3.7-4-6.6-8.9-8.7-14.5
			c-2.1-5.7-3.1-12.1-3.1-19.1c0-7,1-13.4,3.1-19.1c2.1-5.7,5-10.6,8.7-14.6c3.7-4,8.2-7.1,13.4-9.3c5.2-2.2,10.9-3.3,17.1-3.3
			c6.3,0,12.1,1.1,17.2,3.2c5.2,2.2,9.7,5.3,13.4,9.3c3.7,4,6.6,8.9,8.7,14.6C597.1,36.9,598.2,43.3,598.2,50.4z M594.4,50.4
			c0-6.7-0.9-12.8-2.8-18.1s-4.5-9.9-7.9-13.6c-3.4-3.7-7.5-6.6-12.2-8.6c-4.7-2-10-3-15.7-3c-5.7,0-10.9,1-15.6,3
			c-4.7,2-8.8,4.8-12.2,8.6c-3.4,3.7-6.1,8.3-8,13.6s-2.9,11.4-2.9,18.1c0,6.7,1,12.8,2.9,18.1c1.9,5.3,4.6,9.9,8,13.5
			c3.4,3.7,7.5,6.5,12.2,8.5c4.7,2,9.9,3,15.6,3c5.7,0,11-1,15.7-3c4.7-2,8.8-4.8,12.2-8.5c3.4-3.7,6-8.2,7.9-13.5
			C593.5,63.1,594.4,57.1,594.4,50.4z"/>
	</g>
	<g>
		<path class="st1" d="M86.6,50.4c0,7.1-1,13.5-3.1,19.1c-2.1,5.7-5,10.5-8.7,14.5c-3.7,4-8.2,7.1-13.4,9.2
			c-5.2,2.1-10.9,3.2-17.2,3.2c-6.2,0-11.9-1.1-17.1-3.2c-5.2-2.1-9.7-5.2-13.4-9.2C10,80,7.1,75.2,5,69.5C3,63.8,1.9,57.4,1.9,50.4
			c0-7,1-13.4,3.1-19.1c2.1-5.7,5-10.6,8.7-14.6c3.7-4,8.2-7.1,13.4-9.3C32.3,5.2,38,4.1,44.2,4.1c6.3,0,12.1,1.1,17.2,3.2
			c5.2,2.2,9.7,5.3,13.4,9.3c3.7,4,6.6,8.9,8.7,14.6C85.6,36.9,86.6,43.3,86.6,50.4z M82.9,50.4c0-6.7-0.9-12.8-2.8-18.1
			s-4.5-9.9-7.9-13.6S64.7,12,60,10.1c-4.7-2-10-3-15.7-3c-5.7,0-10.9,1-15.6,3c-4.7,2-8.8,4.8-12.2,8.6c-3.4,3.7-6.1,8.3-8,13.6
			c-1.9,5.3-2.9,11.4-2.9,18.1c0,6.7,1,12.8,2.9,18.1c1.9,5.3,4.6,9.9,8,13.5c3.4,3.7,7.5,6.5,12.2,8.5c4.7,2,9.9,3,15.6,3
			c5.7,0,11-1,15.7-3c4.7-2,8.8-4.8,12.2-8.5c3.4-3.7,6-8.2,7.9-13.5C82,63.1,82.9,57.1,82.9,50.4z"/>
		<path class="st1" d="M195,92.5v3.1h-48.4V5.1h3.5v87.4H195z"/>
		<path class="st1" d="M327.2,50.4c0,7.1-1,13.5-3.1,19.1c-2.1,5.7-5,10.5-8.7,14.5c-3.7,4-8.2,7.1-13.4,9.2
			c-5.2,2.1-10.9,3.2-17.2,3.2c-6.2,0-11.9-1.1-17.1-3.2c-5.2-2.1-9.7-5.2-13.4-9.2c-3.7-4-6.6-8.9-8.7-14.5
			c-2.1-5.7-3.1-12.1-3.1-19.1c0-7,1-13.4,3.1-19.1c2.1-5.7,5-10.6,8.7-14.6c3.7-4,8.2-7.1,13.4-9.3c5.2-2.2,10.9-3.3,17.1-3.3
			c6.3,0,12.1,1.1,17.2,3.2c5.2,2.2,9.7,5.3,13.4,9.3c3.7,4,6.6,8.9,8.7,14.6C326.2,36.9,327.2,43.3,327.2,50.4z M323.5,50.4
			c0-6.7-0.9-12.8-2.8-18.1c-1.9-5.3-4.5-9.9-7.9-13.6s-7.5-6.6-12.2-8.6c-4.7-2-10-3-15.7-3c-5.7,0-10.9,1-15.6,3
			c-4.7,2-8.8,4.8-12.2,8.6c-3.4,3.7-6.1,8.3-8,13.6c-1.9,5.3-2.9,11.4-2.9,18.1c0,6.7,1,12.8,2.9,18.1c1.9,5.3,4.6,9.9,8,13.5
			c3.4,3.7,7.5,6.5,12.2,8.5c4.7,2,9.9,3,15.6,3c5.7,0,11-1,15.7-3c4.7-2,8.8-4.8,12.2-8.5c3.4-3.7,6-8.2,7.9-13.5
			C322.6,63.1,323.5,57.1,323.5,50.4z"/>
		<path class="st1" d="M458.8,55.8v30.9c-4.5,3-9.3,5.5-14.4,7.2s-11,2.7-17.4,2.7c-7.1,0-13.5-1.1-19.1-3.2
			c-5.7-2.2-10.5-5.3-14.4-9.3c-4-4-7-8.9-9.1-14.6c-2.1-5.7-3.2-12.1-3.2-19.2s1-13.5,3.1-19.1c2.1-5.7,5.1-10.5,9-14.6
			c3.9-4,8.6-7.1,14.2-9.3c5.5-2.2,11.8-3.2,18.7-3.2c3.4,0,6.5,0.2,9.4,0.6c2.9,0.4,5.5,1.1,7.9,2c2.4,0.9,4.8,2,6.9,3.3
			c2.2,1.3,4.3,2.9,6.3,4.6l-0.9,1.4c-0.3,0.5-0.8,0.7-1.5,0.5c-0.4-0.1-1.2-0.7-2.3-1.7c-1.1-1-2.8-2-5-3.2c-2.2-1.1-5-2.2-8.4-3.1
			c-3.4-0.9-7.6-1.4-12.5-1.4c-6.3,0-12,1-17.1,3c-5.1,2-9.4,4.8-13,8.6s-6.3,8.3-8.3,13.6c-1.9,5.3-2.9,11.4-2.9,18.1
			c0,6.7,1,12.7,2.9,18.1c1.9,5.4,4.7,9.9,8.3,13.7c3.6,3.8,8,6.6,13.3,8.6c5.2,2,11.1,3,17.7,3c3,0,5.7-0.2,8.3-0.6
			c2.6-0.4,5-0.9,7.2-1.7c2.3-0.7,4.5-1.6,6.6-2.7c2.1-1.1,4.3-2.2,6.5-3.6V58.7h-19.1c-0.3,0-0.6-0.1-0.8-0.3
			c-0.2-0.2-0.3-0.5-0.3-0.7v-1.8H458.8z"/>
		<path class="st1" d="M598.2,50.4c0,7.1-1,13.5-3.1,19.1c-2.1,5.7-5,10.5-8.7,14.5c-3.7,4-8.2,7.1-13.4,9.2
			c-5.2,2.1-10.9,3.2-17.2,3.2c-6.2,0-11.9-1.1-17.1-3.2c-5.2-2.1-9.7-5.2-13.4-9.2c-3.7-4-6.6-8.9-8.7-14.5
			c-2.1-5.7-3.1-12.1-3.1-19.1c0-7,1-13.4,3.1-19.1c2.1-5.7,5-10.6,8.7-14.6c3.7-4,8.2-7.1,13.4-9.3c5.2-2.2,10.9-3.3,17.1-3.3
			c6.3,0,12.1,1.1,17.2,3.2c5.2,2.2,9.7,5.3,13.4,9.3c3.7,4,6.6,8.9,8.7,14.6C597.1,36.9,598.2,43.3,598.2,50.4z M594.4,50.4
			c0-6.7-0.9-12.8-2.8-18.1s-4.5-9.9-7.9-13.6c-3.4-3.7-7.5-6.6-12.2-8.6c-4.7-2-10-3-15.7-3c-5.7,0-10.9,1-15.6,3
			c-4.7,2-8.8,4.8-12.2,8.6c-3.4,3.7-6.1,8.3-8,13.6s-2.9,11.4-2.9,18.1c0,6.7,1,12.8,2.9,18.1c1.9,5.3,4.6,9.9,8,13.5
			c3.4,3.7,7.5,6.5,12.2,8.5c4.7,2,9.9,3,15.6,3c5.7,0,11-1,15.7-3c4.7-2,8.8-4.8,12.2-8.5c3.4-3.7,6-8.2,7.9-13.5
			C593.5,63.1,594.4,57.1,594.4,50.4z"/>
	</g>
</g>
</svg>
