<?xml version="1.0" encoding="utf-8"?>
<!-- Generator: Adobe Illustrator 21.1.0, SVG Export Plug-In . SVG Version: 6.00 Build 0)  -->
<svg version="1.1" id="Capa_1" xmlns="http://www.w3.org/2000/svg" xmlns:xlink="http://www.w3.org/1999/xlink" x="0px" y="0px"
	 viewBox="0 0 112.2 112.2" style="enable-background:new 0 0 112.2 112.2;" xml:space="preserve">
<style type="text/css">
	.st0{fill:#444444;}
	.st1{opacity:0.54;fill-rule:evenodd;clip-rule:evenodd;}
	.st2{fill:#FFFFFF;}
</style>
<g>
	<circle class="st0" cx="56.1" cy="56.1" r="56.1"/>
</g>
<g id="YouTube_icon_2_">
	<path id="Triangle" class="st0" d="M49.8,66.2l16.5-8.6L49.8,49V66.2z"/>
	<path id="The_Sharpness" class="st1" d="M49.8,49l14.5,9.7l2-1.1L49.8,49z"/>
	<g id="Lozenge">
		<g>
			<path class="st2" d="M86.1,46c0,0-0.6-4.2-2.4-6.1c-2.3-2.4-4.9-2.4-6.1-2.6c-8.6-0.6-21.4-0.6-21.4-0.6h0c0,0-12.8,0-21.4,0.6
				c-1.2,0.1-3.8,0.2-6.1,2.6c-1.8,1.9-2.4,6.1-2.4,6.1s-0.6,4.9-0.6,9.9v4.6c0,4.9,0.6,9.9,0.6,9.9s0.6,4.2,2.4,6.1
				c2.3,2.4,5.4,2.4,6.7,2.6c4.9,0.5,20.8,0.6,20.8,0.6s12.8,0,21.4-0.6c1.2-0.1,3.8-0.2,6.1-2.6c1.8-1.9,2.4-6.1,2.4-6.1
				s0.6-4.9,0.6-9.9v-4.6C86.7,51,86.1,46,86.1,46z M49.8,66.2l0-17.2l16.5,8.6L49.8,66.2z"/>
		</g>
	</g>
</g>
</svg>
